<svg width="442" height="450" viewBox="0 0 442 450" fill="none" xmlns="http://www.w3.org/2000/svg">
<rect width="442" height="450" rx="74" fill="#D9D9D9"/>
<path fill-rule="evenodd" clip-rule="evenodd" d="M217.301 42.085C216.537 42.1563 215.6 42.3032 215.218 42.4114C214.837 42.5195 213.674 42.8157 212.635 43.0697C208.889 43.9851 204.995 45.8492 201.731 48.2885C200.639 49.1048 178.755 70.9235 123.227 126.557C80.8833 168.982 45.7152 204.321 45.0763 205.087C42.4288 208.263 40.9406 211.006 39.4453 215.464C38.6054 217.969 38.4619 218.607 38.2264 220.89C37.7248 225.749 38.0342 230.3 39.0903 233.599C39.4226 234.638 39.6947 235.56 39.6947 235.649C39.6947 235.737 39.8059 236.056 39.9418 236.358C40.0776 236.659 40.4328 237.475 40.7313 238.172C42.191 241.578 44.634 244.979 47.9069 248.161C49.1969 249.415 49.8089 249.888 50.2677 249.986C50.6085 250.059 111.419 250.118 185.402 250.118H319.917L319.583 250.661C319.399 250.959 319.248 251.311 319.246 251.443C319.245 251.575 318.3 252.661 317.147 253.856C315.994 255.052 314.185 256.929 313.126 258.029C312.068 259.128 310.103 261.163 308.76 262.549C305.842 265.563 302.787 268.741 297.644 274.115C295.545 276.309 293.111 278.849 292.237 279.758C291.362 280.668 290.435 281.647 290.175 281.934C289.666 282.498 287.423 284.835 283.162 289.246C281.679 290.781 279.574 292.972 278.484 294.114C277.395 295.256 275.558 297.168 274.403 298.363C273.248 299.558 270.43 302.492 268.142 304.883C265.853 307.273 262.922 310.324 261.629 311.663C260.336 313.002 258.344 315.074 257.204 316.269C256.063 317.464 254.232 319.379 253.134 320.525C252.037 321.67 251.1 322.649 251.052 322.699C251.004 322.749 249.949 323.846 248.707 325.137C247.465 326.428 244.844 329.166 242.884 331.222C233.409 341.156 232.049 342.549 231.465 342.91L230.838 343.299L187.392 343.323C142.899 343.348 143.658 343.337 143.641 343.915C143.637 344.037 196.383 396.941 198.653 399.094C202.392 402.638 205.73 404.723 210.099 406.246C212.768 407.177 214.364 407.516 217.448 407.81C220.108 408.063 220.606 408.063 223.281 407.81C227.432 407.418 230.626 406.53 234.277 404.753C236.385 403.727 236.767 403.493 238.905 401.924C241.245 400.206 395.734 245.433 397.201 243.338C400.301 238.91 402.055 234.581 402.827 229.457C403.186 227.077 403.23 222.861 402.918 220.737C402.093 215.104 399.722 209.64 396.167 205.177C394.928 203.621 392.502 201.23 391.814 200.888C391.198 200.581 386.653 200.569 257.039 200.551C157.839 200.538 122.721 200.482 122.207 200.336C121.826 200.228 121.34 200.119 121.128 200.094C120.802 200.055 121.064 199.714 122.831 197.875C123.98 196.68 127.432 193.081 130.503 189.878C133.574 186.675 137.183 182.919 138.522 181.533C141.387 178.567 144.658 175.163 145.026 174.763C146.193 173.499 148.933 170.625 152.828 166.581C161.099 157.994 163.573 155.412 166.891 151.899C167.702 151.041 169.768 148.906 171.481 147.156C173.195 145.405 174.643 143.899 174.699 143.807C174.755 143.716 175.735 142.678 176.876 141.501C178.017 140.324 179.806 138.464 180.852 137.368C183.429 134.665 185.917 132.073 191.363 126.419C193.895 123.79 196.742 120.818 197.689 119.814C198.637 118.81 200.782 116.578 202.457 114.855C204.131 113.131 206.402 110.777 207.504 109.624C209.04 108.018 209.643 107.501 210.086 107.413C210.403 107.349 230.332 107.297 254.371 107.297C295.182 107.297 298.078 107.277 298.078 107.005C298.078 106.612 242.584 50.977 240.38 49.1606C238.136 47.3104 236.86 46.4841 234.307 45.2269C231.69 43.9387 229.82 43.3192 225.67 42.3655C224.31 42.0531 219.404 41.8888 217.301 42.085ZM219.783 130.257C219.451 130.311 218.946 130.522 218.661 130.725C218.238 131.027 214.973 134.392 212.996 136.564C212.748 136.836 210.373 139.3 207.717 142.04C205.061 144.781 202.19 147.766 201.337 148.674C199.233 150.916 193.068 157.365 189.874 160.665C188.437 162.15 185.821 164.891 184.06 166.755C182.3 168.62 178.837 172.196 176.364 174.703C171.565 179.568 171.13 180.074 171.432 180.438C171.685 180.743 371.578 180.775 372.786 180.47C373.478 180.296 373.976 179.829 378.025 175.563C380.486 172.969 384.651 168.616 387.279 165.889C389.908 163.162 393.652 159.249 395.599 157.193C397.547 155.137 400.277 152.282 401.666 150.847C408.118 144.186 409.979 142.253 413.214 138.854C415.123 136.848 417.622 134.241 418.767 133.06C421.197 130.556 421.266 130.461 420.725 130.342C420.172 130.22 220.527 130.136 219.783 130.257ZM69.0343 269.456C68.6246 269.533 66.0472 272.013 63.565 274.719C62.907 275.436 61.4643 276.965 60.3589 278.116C51.9452 286.879 47.5768 291.45 44.8299 294.365C43.8843 295.369 41.7756 297.559 40.1441 299.232C38.5124 300.906 35.0304 304.54 32.4059 307.309C29.7817 310.078 26.2389 313.755 24.5333 315.481C21.2785 318.773 20.853 319.27 21.0357 319.566C21.1133 319.692 52.1123 319.747 121.974 319.747H222.801L224.313 318.226C225.144 317.389 227.419 315.023 229.369 312.967C231.318 310.911 234.047 308.056 235.434 306.621C236.82 305.187 238.81 303.114 239.857 302.014C241.763 300.012 244.475 297.199 249.837 291.662C251.412 290.036 253.95 287.377 255.477 285.754C257.004 284.131 260.44 280.547 263.112 277.79C269.138 271.573 270.747 269.848 270.747 269.606C270.747 269.469 242.643 269.411 170.101 269.397C114.746 269.386 69.2656 269.412 69.0343 269.456Z" fill="#090101" fill-opacity="0.99"/>
</svg>
